<?xml version="1.0" encoding="UTF-8"?>
<svg id="Capa_1" xmlns="http://www.w3.org/2000/svg" version="1.1" viewBox="0 0 140 140">
  <!-- Generator: Adobe Illustrator 29.3.1, SVG Export Plug-In . SVG Version: 2.1.0 Build 151)  -->
  <defs>
    <style>
      .st0 {
        fill: #fff;
        fill-rule: evenodd;
      }
    </style>
  </defs>
  <path class="st0" d="M58.9,125.2l14.9,14.8,7.3-7.4-7.4-7.4,7.4-7.5-7.4-7.4-14.8,14.9Z"/>
  <path class="st0" d="M88,123.3l20.3,5.4,2.7-10.1-10.1-2.7,2.7-10.2-10.1-2.7-5.4,20.3Z"/>
  <path class="st0" d="M112.3,107.2l20.2-5.5-2.7-10.1-10.1,2.7-2.8-10.2-10.1,2.7,5.5,20.2Z"/>
  <path class="st0" d="M125.2,81.1l14.8-14.9-7.4-7.3-7.4,7.4-7.5-7.4-7.4,7.4,14.9,14.8Z"/>
  <path class="st0" d="M123.3,52l5.4-20.3-10.1-2.7-2.7,10.1-10.2-2.7-2.7,10.1,20.3,5.4Z"/>
  <path class="st0" d="M107.2,27.7l-5.5-20.2-10.1,2.7,2.7,10.1-10.2,2.8,2.7,10.1,20.2-5.5Z"/>
  <path class="st0" d="M81.1,14.8L66.2,0l-7.3,7.4,7.4,7.4-7.4,7.5,7.4,7.4,14.8-14.9Z"/>
  <path class="st0" d="M52,16.7l-20.3-5.4-2.7,10.1,10.1,2.7-2.7,10.2,10.1,2.7,5.4-20.3Z"/>
  <path class="st0" d="M27.7,32.8l-20.2,5.5,2.7,10.1,10.1-2.7,2.8,10.2,10.1-2.7-5.5-20.2Z"/>
  <path class="st0" d="M14.8,58.9L0,73.8l7.4,7.3,7.4-7.4,7.5,7.4,7.4-7.4-14.9-14.8Z"/>
  <path class="st0" d="M16.7,88l-5.4,20.3,10.1,2.7,2.7-10.1,10.2,2.7,2.7-10.1-20.3-5.4Z"/>
  <path class="st0" d="M32.8,112.3l5.5,20.2,10.1-2.7-2.7-10.1,10.2-2.8-2.7-10.1-20.2,5.5Z"/>
</svg>