<svg width="140" height="140" viewBox="0 0 140 140" fill="none" xmlns="http://www.w3.org/2000/svg">
<path fill-rule="evenodd" clip-rule="evenodd" d="M58.9379 125.215L73.8003 140L81.1439 132.618L73.7093 125.222L81.1505 117.742L73.7227 110.353L58.9379 125.215Z" fill="black"/>
<path fill-rule="evenodd" clip-rule="evenodd" d="M88.0275 123.349L108.291 128.722L110.96 118.657L100.823 115.969L103.528 105.77L93.4004 103.085L88.0275 123.349Z" fill="black"/>
<path fill-rule="evenodd" clip-rule="evenodd" d="M112.287 107.188L132.522 101.709L129.801 91.658L119.678 94.3987L116.921 84.2143L106.808 86.9525L112.287 107.188Z" fill="black"/>
<path fill-rule="evenodd" clip-rule="evenodd" d="M125.215 81.0621L140 66.1997L132.618 58.8561L125.222 66.2907L117.742 58.8495L110.353 66.2773L125.215 81.0621Z" fill="black"/>
<path fill-rule="evenodd" clip-rule="evenodd" d="M123.349 51.9724L128.722 31.7088L118.657 29.0402L115.969 39.1766L105.77 36.4725L103.085 46.5996L123.349 51.9724Z" fill="black"/>
<path fill-rule="evenodd" clip-rule="evenodd" d="M107.188 27.7133L101.709 7.47804L91.658 10.1994L94.3987 20.3216L84.2143 23.0791L86.9524 33.1921L107.188 27.7133Z" fill="black"/>
<path fill-rule="evenodd" clip-rule="evenodd" d="M81.0621 14.7848L66.1997 0L58.8561 7.38214L66.2907 14.7779L58.8495 22.2582L66.2773 29.6472L81.0621 14.7848Z" fill="black"/>
<path fill-rule="evenodd" clip-rule="evenodd" d="M51.9724 16.6511L31.7088 11.2783L29.0402 21.3433L39.1766 24.0309L36.4725 34.2296L46.5996 36.9147L51.9724 16.6511Z" fill="black"/>
<path fill-rule="evenodd" clip-rule="evenodd" d="M27.7133 32.8123L7.47804 38.2912L10.1994 48.342L20.3216 45.6013L23.0791 55.7857L33.1921 53.0475L27.7133 32.8123Z" fill="black"/>
<path fill-rule="evenodd" clip-rule="evenodd" d="M14.7848 58.9379L0 73.8003L7.38214 81.1439L14.7779 73.7093L22.2582 81.1505L29.6472 73.7227L14.7848 58.9379Z" fill="black"/>
<path fill-rule="evenodd" clip-rule="evenodd" d="M16.6511 88.0275L11.2783 108.291L21.3433 110.96L24.0309 100.823L34.2296 103.528L36.9147 93.4004L16.6511 88.0275Z" fill="black"/>
<path fill-rule="evenodd" clip-rule="evenodd" d="M32.8123 112.287L38.2912 132.522L48.342 129.801L45.6013 119.678L55.7857 116.921L53.0475 106.808L32.8123 112.287Z" fill="black"/>
</svg>
